<?xml version="1.0" standalone="no"?>
<!DOCTYPE svg PUBLIC "-//W3C//DTD SVG 20010904//EN"
 "http://www.w3.org/TR/2001/REC-SVG-20010904/DTD/svg10.dtd">
<svg version="1.0" xmlns="http://www.w3.org/2000/svg"
 width="460.000000pt" height="460.000000pt" viewBox="0 0 460.000000 460.000000"
 preserveAspectRatio="xMidYMid meet">
<metadata>
Created by potrace 1.14, written by Peter Selinger 2001-2017
</metadata>
<g transform="translate(0.000000,460.000000) scale(0.100000,-0.100000)"
fill="#000000" stroke="none">
<path d="M588 4558 l-3 -43 -255 -1 c-140 -1 -272 -2 -293 -3 l-38 -1 1 -895
c1 -620 5 -895 12 -895 7 0 6 -5 -1 -14 -8 -9 -11 -42 -10 -90 3 -62 6 -76 21
-79 10 -3 18 -13 18 -24 -1 -17 -1 -17 -11 0 -11 19 -29 23 -29 6 0 -5 4 -7
10 -4 6 4 10 -11 11 -37 1 -41 2 -42 10 -13 7 28 8 27 6 -11 -2 -41 -2 -41 19
-25 27 20 148 184 240 324 55 85 131 243 139 294 4 21 15 67 25 103 10 36 23
90 30 120 6 30 23 98 37 150 14 52 31 120 39 150 21 82 44 270 44 360 0 80 5
91 29 68 10 -11 11 4 7 75 -4 51 -2 87 3 87 5 0 12 -8 14 -17 4 -17 5 -17 6 0
0 9 5 17 9 17 9 0 34 -62 27 -69 -3 -2 -5 1 -5 7 0 7 -4 12 -8 12 -12 0 -8
-40 5 -48 5 -4 13 -14 16 -22 5 -13 7 2 11 72 2 30 20 25 27 -7 7 -30 7 -30 8
-3 1 29 16 45 26 28 5 -8 11 -7 21 1 11 9 14 8 15 -2 0 -8 4 -5 8 6 5 11 13
21 20 21 6 1 16 2 21 3 6 0 10 9 11 19 1 17 1 16 15 -27 4 -11 8 -10 19 5 8
10 15 14 15 8 0 -6 14 -11 31 -11 17 0 35 -6 40 -14 6 -10 11 -11 17 -3 9 13
42 14 42 1 0 -5 7 -6 16 -3 9 3 12 2 9 -5 -4 -6 0 -9 11 -7 10 2 19 -1 20 -7
2 -25 20 -49 83 -112 37 -38 80 -94 96 -125 17 -32 33 -58 37 -58 9 0 40 -68
63 -140 9 -30 28 -78 41 -106 13 -28 24 -54 24 -58 0 -14 109 -240 173 -358
20 -37 48 -95 63 -130 14 -35 44 -84 65 -109 22 -26 39 -50 39 -54 0 -12 117
-185 162 -237 64 -78 134 -155 204 -228 34 -36 82 -87 106 -114 24 -26 75 -82
114 -125 102 -109 173 -191 200 -231 13 -19 39 -56 57 -82 90 -130 193 -281
202 -295 6 -9 36 -53 68 -97 132 -185 155 -219 239 -359 29 -49 60 -100 69
-115 51 -84 95 -166 126 -232 18 -41 41 -82 49 -91 14 -15 13 -22 -11 -66 -14
-26 -46 -86 -71 -133 -41 -77 -84 -146 -164 -265 -33 -50 -110 -181 -110 -189
0 -3 78 -6 173 -6 l172 0 -3 214 -3 214 31 56 c37 65 37 101 0 229 -22 77 -22
79 -6 165 23 118 43 168 88 226 21 27 38 52 38 56 0 5 33 25 73 45 39 20 115
67 167 104 52 36 112 75 133 86 21 11 48 30 59 42 12 13 25 23 30 23 10 0 18
6 78 60 25 22 56 43 70 47 14 3 43 16 65 27 35 19 40 25 37 51 -11 96 -38 153
-98 210 -29 27 -124 154 -142 190 -24 49 -52 144 -52 179 0 20 -8 29 -37 41
-21 9 -44 23 -50 32 -7 9 -16 14 -19 10 -4 -4 -1 -13 5 -21 14 -16 0 -22 -64
-28 -21 -2 -30 -8 -29 -20 1 -9 -5 -19 -13 -23 -10 -3 -13 -1 -10 7 7 19 -20
42 -29 26 -4 -7 -2 -14 4 -16 7 -2 12 -8 12 -14 0 -6 8 -17 17 -24 17 -11 16
-13 -7 -17 -14 -3 -164 -10 -335 -16 -170 -6 -341 -13 -380 -15 -75 -5 -210
-8 -235 -6 -10 1 -9 4 5 9 11 4 65 9 120 10 55 2 120 4 145 6 25 2 51 3 59 4
11 1 11 4 1 17 -11 13 -10 16 8 21 12 3 22 9 22 14 0 5 11 16 25 25 23 15 27
15 50 0 22 -14 25 -15 25 -1 0 8 -9 23 -20 32 -14 13 -17 20 -8 30 23 28 -9
11 -35 -18 -31 -35 -36 -30 -9 9 25 37 45 89 38 100 -3 5 0 17 7 26 11 15 12
11 9 -23 -4 -35 -1 -41 15 -41 13 0 25 17 42 63 14 34 31 69 38 78 7 8 13 21
13 27 0 6 9 14 20 17 11 4 31 17 45 29 19 18 23 29 20 63 -4 42 -4 42 28 39
17 -1 43 -8 56 -15 18 -10 22 -10 16 0 -6 9 -2 11 15 6 13 -3 36 1 51 9 15 7
37 14 49 14 11 0 20 3 20 6 0 3 -11 49 -25 103 -18 74 -27 145 -36 303 -6 113
-9 214 -7 225 2 10 8 -33 12 -96 4 -63 11 -123 15 -134 7 -18 10 -16 31 21 13
23 27 42 32 42 4 0 8 7 8 15 0 8 4 15 9 15 12 0 51 116 51 152 0 60 103 258
133 258 7 0 35 23 62 50 28 28 73 67 101 86 28 20 57 47 63 60 13 29 53 46 87
38 22 -6 71 7 139 36 38 16 144 18 198 4 28 -7 58 -14 65 -14 9 0 12 57 12
250 0 246 0 250 -21 250 -12 0 -17 4 -14 11 4 6 13 8 21 5 10 -4 14 3 14 24 0
24 -4 30 -22 30 -19 0 -20 2 -8 10 12 7 8 10 -14 10 -24 0 -27 -2 -16 -15 10
-12 10 -15 -3 -15 -9 0 -19 5 -22 10 -4 6 -11 8 -16 4 -15 -9 -81 5 -74 16 3
5 1 11 -5 15 -5 3 -10 2 -10 -4 0 -5 -3 -16 -6 -25 -5 -12 0 -16 19 -16 14 0
29 -4 32 -10 3 -5 19 -7 35 -3 19 3 30 1 30 -6 0 -6 -10 -11 -22 -11 -21 0
-21 -1 -6 -17 14 -13 20 -14 32 -3 29 23 17 -1 -14 -30 -26 -25 -30 -26 -30
-9 0 10 -6 19 -12 20 -64 6 -78 6 -78 3 0 -3 11 -9 25 -14 16 -6 23 -14 19
-25 -3 -8 -1 -15 5 -15 6 0 11 7 11 15 0 8 5 15 10 15 6 0 10 -8 10 -17 0 -10
3 -29 6 -43 5 -21 4 -22 -6 -7 -16 25 -39 22 -33 -4 4 -16 2 -20 -8 -17 -8 3
-13 12 -11 22 2 9 -2 16 -8 16 -5 0 -10 -8 -10 -17 -1 -16 -2 -16 -15 1 -14
19 -15 19 -38 -7 -12 -15 -32 -27 -44 -27 -11 0 -24 -8 -28 -17 -6 -16 -8 -16
-25 5 -20 25 -35 29 -27 8 8 -21 -64 -28 -79 -7 -10 13 -16 13 -35 3 -13 -7
-44 -16 -69 -20 l-45 -8 43 -8 c50 -9 57 -24 8 -18 -18 2 -37 -1 -40 -7 -5 -7
4 -11 23 -11 17 0 31 -5 31 -10 0 -16 -30 -24 -42 -12 -8 8 -16 4 -29 -11 -10
-12 -18 -16 -19 -9 0 27 -20 10 -20 -18 0 -28 -2 -29 -39 -26 -22 2 -44 7 -50
11 -18 11 -12 35 9 35 11 0 20 5 20 11 0 7 -9 9 -21 6 -17 -5 -20 -2 -16 14 6
21 -54 80 -61 60 -4 -13 -32 -15 -32 -2 0 6 5 13 10 16 18 11 2 22 -27 18 -22
-4 -28 -10 -29 -29 -2 -31 -2 -31 -37 -39 -17 -5 -27 -3 -27 4 0 6 7 11 15 11
8 0 15 5 15 10 0 12 -71 3 -80 -10 -3 -4 -15 -12 -28 -19 -19 -10 -21 -15 -11
-27 10 -13 14 -12 30 2 13 12 22 13 36 5 17 -10 17 -10 0 -11 -10 0 -20 -6
-23 -14 -3 -8 -12 -12 -21 -9 -12 5 -14 0 -8 -25 6 -28 4 -32 -21 -38 -15 -4
-29 -3 -31 2 -4 12 -71 9 -104 -4 -41 -16 -74 -18 -71 -4 1 6 -4 13 -10 14
-39 4 -68 3 -68 -4 0 -4 -4 -8 -9 -8 -5 0 -7 9 -4 20 4 14 0 20 -11 20 -9 0
-16 -8 -16 -20 0 -11 -4 -20 -10 -20 -5 0 -10 7 -10 16 0 12 -4 14 -12 7 -19
-15 -78 -24 -78 -13 0 6 -10 10 -22 10 -19 0 -20 -2 -8 -10 11 -7 3 -10 -28
-10 -26 0 -41 4 -37 10 3 6 -3 10 -14 10 -12 0 -21 -5 -21 -12 0 -9 -3 -9 -12
0 -7 7 -17 8 -29 1 -10 -5 -29 -10 -43 -11 -15 -1 -26 -7 -26 -12 0 -5 -3 -6
-7 -2 -5 4 -8 13 -8 19 0 16 -44 22 -58 8 -8 -8 -7 -11 2 -11 7 0 9 -4 6 -10
-4 -6 -12 -6 -23 0 -9 5 -32 13 -49 19 -27 8 -34 7 -42 -6 -8 -15 -10 -15 -26
0 -20 21 -39 22 -55 2 -15 -18 -34 -20 -24 -3 5 8 2 9 -11 4 -10 -4 -21 -2
-25 5 -6 8 -9 8 -14 0 -4 -6 -2 -11 3 -11 6 0 11 -4 11 -9 0 -4 -24 -4 -52 2
-112 20 -155 12 -122 -24 22 -25 37 -24 29 1 -7 21 2 24 29 14 12 -5 13 -10 5
-25 -8 -17 -6 -19 19 -19 16 0 44 -3 62 -6 31 -7 32 -6 25 17 -7 23 -7 23 12
7 22 -20 49 -23 58 -8 4 6 14 1 25 -12 10 -13 22 -19 27 -14 4 5 2 11 -4 13
-7 3 -13 12 -13 21 1 15 2 15 15 -2 18 -24 105 -42 117 -24 6 10 8 10 8 1 0
-8 15 -13 40 -13 22 0 40 -4 40 -10 0 -5 -13 -10 -29 -10 -16 0 -44 -2 -62 -5
-29 -4 -30 -3 -9 4 22 8 20 9 -17 10 -23 1 -43 -3 -45 -8 -5 -14 -221 -23
-493 -20 -11 0 -87 -2 -168 -5 -125 -5 -149 -3 -153 9 -8 19 -40 19 -48 0 -4
-11 -19 -15 -53 -14 -26 1 -39 3 -28 6 47 11 36 23 -20 23 -92 0 -46 19 50 21
44 1 70 4 58 6 -26 5 -31 23 -8 23 8 0 15 5 15 10 0 6 -13 10 -30 10 -38 0
-40 20 -2 21 15 1 -13 6 -62 11 -65 6 -91 6 -96 -2 -8 -13 -67 12 -83 34 -6 8
-10 8 -13 -1 -4 -8 -12 -8 -32 3 -15 8 -33 14 -39 14 -7 0 -13 7 -13 15 0 8 6
15 13 15 8 0 9 3 1 8 -19 13 -25 59 -9 72 16 13 21 50 7 50 -4 0 -16 -10 -26
-22 l-19 -21 -13 29 c-12 29 -12 29 -13 4 -3 -61 -27 25 -55 198 -8 45 -18 88
-24 95 -5 6 -12 24 -16 40 l-6 27 -94 0 c-105 0 -109 -3 -100 -67 3 -21 7 -54
9 -73 4 -42 9 -62 17 -75 3 -5 5 -31 4 -58 0 -29 3 -47 10 -47 15 0 23 -77 9
-92 -7 -8 -5 -9 7 -5 25 9 44 -25 58 -103 7 -36 18 -80 26 -99 8 -19 13 -36
11 -38 -2 -1 -24 16 -48 39 -49 48 -81 86 -61 74 20 -12 14 12 -10 34 -22 20
-41 19 -20 -2 14 -14 16 -28 3 -28 -5 0 -11 8 -15 18 -3 9 -9 23 -12 31 -4 8
-2 11 4 7 6 -3 12 -1 14 5 3 8 8 7 18 -3 24 -23 50 -30 50 -13 0 8 -5 15 -10
15 -6 0 -22 12 -35 26 -23 25 -24 28 -7 40 16 12 16 14 -3 28 -22 17 -70 22
-60 6 3 -5 -3 -10 -14 -10 -22 0 -30 20 -8 20 6 0 4 5 -6 11 -19 11 -57 3 -57
-12 0 -5 -10 -4 -21 3 -17 10 -23 10 -26 1 -4 -10 -10 -10 -26 -2 -17 9 -23 8
-34 -7 -13 -18 -15 -18 -24 -1 -10 18 -50 15 -76 -6 -13 -10 -17 -4 -26 38 -4
17 -5 17 -6 -3 -1 -16 -10 -26 -31 -33 -18 -7 -27 -15 -23 -22 5 -9 3 -9 -8 0
-8 6 -30 13 -49 15 -28 2 -34 7 -32 23 1 11 3 32 3 48 0 15 5 25 10 22 5 -4 9
8 9 24 0 17 5 31 11 31 6 0 9 7 5 15 -3 8 -2 15 2 15 11 -1 59 -45 65 -61 3
-9 6 -5 6 9 1 26 26 29 40 5 11 -19 11 -19 15 14 2 17 -1 20 -9 13 -9 -7 -16
-5 -25 5 -16 20 -8 28 30 29 16 1 30 4 30 9 0 4 11 7 25 7 16 0 25 6 25 15 0
8 -7 15 -15 15 -8 0 -15 7 -15 15 0 13 4 14 20 5 14 -8 25 -7 40 2 31 20 24
30 -15 22 -42 -8 -72 10 -54 32 12 15 33 9 24 -7 -4 -5 -1 -9 6 -9 6 0 9 8 6
20 -3 11 -1 20 4 20 5 0 9 -7 9 -15 0 -8 5 -15 10 -15 6 0 10 14 10 30 0 33
-16 39 -50 18 -24 -15 -37 -4 -20 17 11 13 -2 15 -118 15 l-131 0 -3 -42z
m232 -92 c0 -3 -4 -8 -10 -11 -5 -3 -10 -1 -10 4 0 6 5 11 10 11 6 0 10 -2 10
-4z m-45 -26 c-3 -5 -12 -10 -18 -10 -7 0 -6 4 3 10 19 12 23 12 15 0z m-40
-30 c3 -5 1 -10 -4 -10 -6 0 -11 5 -11 10 0 6 2 10 4 10 3 0 8 -4 11 -10z
m3855 0 c0 -5 -4 -10 -10 -10 -5 0 -10 5 -10 10 0 6 5 10 10 10 6 0 10 -4 10
-10z m-45 -120 c4 -6 -5 -10 -19 -10 -14 0 -26 5 -26 10 0 6 9 10 19 10 11 0
23 -4 26 -10z m45 -70 c0 -5 -4 -10 -10 -10 -5 0 -10 5 -10 10 0 6 5 10 10 10
6 0 10 -4 10 -10z m-476 -25 c-6 -16 -24 -21 -24 -7 0 11 11 22 21 22 5 0 6
-7 3 -15z m-3154 -11 c0 -8 -4 -12 -10 -9 -5 3 -10 10 -10 16 0 5 5 9 10 9 6
0 10 -7 10 -16z m3205 -6 c4 4 2 -4 -5 -17 -10 -19 -14 -21 -21 -10 -5 8 -9
23 -9 34 1 19 2 19 14 3 7 -10 17 -14 21 -10z m-2689 -58 c12 -39 9 -54 -7
-44 -5 3 -9 18 -9 34 0 16 -5 32 -10 35 -6 4 -8 11 -4 16 9 15 17 3 30 -41z
m2284 40 c0 -5 -4 -10 -10 -10 -5 0 -10 5 -10 10 0 6 5 10 10 10 6 0 10 -4 10
-10z m40 0 c0 -5 -4 -10 -10 -10 -5 0 -10 5 -10 10 0 6 5 10 10 10 6 0 10 -4
10 -10z m480 -26 c0 -8 -5 -12 -10 -9 -6 4 -8 11 -5 16 9 14 15 11 15 -7z
m-600 -4 c0 -5 -4 -10 -9 -10 -6 0 -13 5 -16 10 -3 6 1 10 9 10 9 0 16 -4 16
-10z m384 -45 c11 -8 17 -17 14 -20 -10 -11 -58 7 -58 21 0 18 20 17 44 -1z
m59 0 c0 -6 -7 -11 -16 -13 -12 -3 -15 1 -11 13 7 17 25 17 27 0z m-123 -16
c0 -5 -7 -9 -15 -9 -15 0 -20 12 -9 23 8 8 24 -1 24 -14z m205 11 c3 -5 -1
-10 -10 -10 -9 0 -13 5 -10 10 3 6 8 10 10 10 2 0 7 -4 10 -10z m-572 -37 c-7
-2 -19 -2 -25 0 -7 3 -2 5 12 5 14 0 19 -2 13 -5z m-1903 -22 c0 -12 -21 -19
-38 -13 -11 4 -11 6 0 13 17 11 38 11 38 0z m1000 -11 c0 -5 -5 -10 -11 -10
-5 0 -7 5 -4 10 3 6 8 10 11 10 2 0 4 -4 4 -10z m180 -32 c0 -19 -2 -20 -10
-8 -13 19 -13 30 0 30 6 0 10 -10 10 -22z m-1110 2 c-20 -13 -40 -13 -40 0 0
6 12 10 28 10 21 0 24 -2 12 -10z m95 -60 c3 -5 -3 -10 -15 -10 -12 0 -18 5
-15 10 3 6 10 10 15 10 5 0 12 -4 15 -10z m-188 -6 c-3 -3 -12 -4 -19 -1 -8 3
-5 6 6 6 11 1 17 -2 13 -5z m813 -23 l-25 -7 22 -14 c16 -11 19 -17 11 -27 -8
-10 1 -13 43 -14 51 -1 52 -1 19 -9 -32 -8 -60 -6 -99 6 -11 4 -10 8 3 23 17
18 16 20 -3 26 -30 9 -16 25 22 24 30 -1 30 -1 7 -8z m67 -7 c-3 -3 -12 -4
-19 -1 -8 3 -5 6 6 6 11 1 17 -2 13 -5z m196 -51 c-13 -2 -33 -2 -45 0 -13 2
-3 4 22 4 25 0 35 -2 23 -4z m-428 -13 c4 -6 -6 -10 -22 -10 -22 0 -25 2 -13
10 19 12 27 12 35 0z m98 3 c-7 -2 -19 -2 -25 0 -7 3 -2 5 12 5 14 0 19 -2 13
-5z m-123 -123 c-4 -3 -10 -14 -13 -25 -2 -11 -5 0 -6 24 -1 41 0 43 13 25 8
-10 11 -21 6 -24z m210 -14 c0 -8 12 -19 28 -24 25 -10 25 -10 4 -11 -13 -1
-21 -5 -18 -10 4 -5 0 -12 -6 -15 -7 -3 131 -4 307 -1 176 2 314 1 307 -4 -7
-4 -75 -9 -150 -10 -156 -1 -413 -9 -579 -17 -75 -3 -113 -1 -113 6 0 9 48 15
93 12 9 -1 17 3 17 8 0 6 11 10 24 10 14 0 28 5 31 10 4 6 14 9 23 8 13 -2 17
4 15 25 -1 15 2 27 8 27 5 0 9 -6 9 -14z m180 -12 c0 -8 -5 -12 -10 -9 -6 4
-8 11 -5 16 9 14 15 11 15 -7z m-1052 -81 c-10 -2 -28 -2 -40 0 -13 2 -5 4 17
4 22 1 32 -1 23 -4z m1400 -8 c-9 -7 -98 -11 -98 -4 0 8 67 17 88 10 7 -2 12
-5 10 -6z m-111 -10 c0 -8 -8 -15 -18 -15 -9 0 -19 7 -23 15 -4 11 1 15 18 15
13 0 23 -6 23 -15z m-154 -5 c-13 -5 -23 -17 -23 -26 0 -13 -6 -15 -27 -9 -16
3 -32 11 -38 17 -7 7 -3 9 13 5 12 -3 22 -1 22 4 0 12 -61 11 -79 0 -12 -8
-12 -12 -2 -25 12 -14 8 -15 -34 -12 -50 4 -75 16 -33 16 14 0 31 6 38 14 10
13 4 15 -37 19 -26 2 13 4 87 5 89 0 127 -2 113 -8z m57 6 c0 -11 -19 -15 -25
-6 -3 5 1 10 9 10 9 0 16 -2 16 -4z m-120 -107 c0 -5 9 -18 20 -29 11 -11 20
-27 20 -35 0 -8 5 -15 10 -15 6 0 10 12 10 26 0 14 4 23 10 19 6 -4 8 -11 5
-16 -4 -5 14 -9 39 -9 25 0 48 5 51 10 9 15 25 2 25 -21 0 -10 5 -19 10 -19 6
0 10 11 10 24 0 43 9 53 40 48 17 -2 37 1 45 8 22 18 31 4 11 -15 -17 -18 -21
-41 -7 -49 4 -3 8 4 7 17 -1 13 6 23 17 25 9 2 17 -1 17 -7 0 -6 -5 -11 -10
-11 -6 0 -3 -11 6 -25 13 -20 20 -23 34 -15 25 13 30 13 30 -5 0 -17 32 -20
61 -5 16 9 19 7 19 -15 0 -14 9 -34 20 -45 11 -11 20 -26 20 -34 0 -8 8 -21
18 -28 10 -7 19 -28 20 -47 4 -56 25 -71 36 -26 8 32 39 34 34 2 -3 -28 26
-77 47 -77 8 0 18 -8 24 -17 9 -16 11 -16 28 -2 10 9 24 14 32 11 19 -7 31 17
31 66 0 24 4 41 9 37 5 -3 8 -26 5 -50 -2 -26 1 -45 6 -45 6 0 11 15 11 33 1
21 4 13 9 -23 10 -83 7 -87 -63 -94 -70 -6 -217 -13 -457 -21 -238 -8 -631
-26 -656 -30 -17 -3 -23 3 -28 27 -9 43 -6 338 3 308 l7 -25 8 23 c4 12 11 22
16 22 5 0 15 2 23 5 9 4 13 -1 13 -17 -1 -19 4 -22 24 -20 14 1 26 6 28 11 1
4 16 23 33 42 16 18 28 38 26 44 -2 5 -1 19 4 30 7 19 8 19 8 -2 1 -22 22 -32
53 -25 13 3 16 11 12 29 -8 30 18 52 64 53 17 0 32 5 32 11 0 5 5 7 10 4 6 -3
10 -10 10 -16z m837 -21 c-3 -7 -5 -2 -5 12 0 14 2 19 5 13 2 -7 2 -19 0 -25z
m-1442 -288 c16 -230 31 -391 34 -354 0 11 6 25 11 30 7 7 8 60 1 165 -5 85
-9 192 -10 239 0 82 0 84 14 50 l13 -35 3 40 c1 24 3 31 6 18 4 -19 8 -21 22
-13 10 5 21 6 25 3 3 -4 13 2 21 13 15 18 15 18 29 1 8 -11 17 -35 21 -55 9
-58 33 -317 30 -320 -2 -2 -27 -10 -57 -17 -52 -14 -52 -14 -12 -12 30 2 40
-1 37 -10 -3 -7 -15 -13 -27 -14 -19 -1 -18 -2 4 -8 20 -6 28 -2 41 19 35 56
49 60 301 67 451 12 460 12 514 -4 45 -13 55 -13 89 1 44 19 48 19 40 6 -10
-16 22 -23 52 -12 27 10 28 10 3 11 -15 1 -21 4 -14 11 14 14 84 0 84 -16 0
-8 5 -14 10 -14 6 0 10 5 10 12 0 25 12 -3 15 -34 1 -17 8 -34 15 -36 9 -3 11
1 7 12 -4 9 -2 16 3 16 6 0 9 5 7 12 -3 15 27 22 59 14 21 -6 23 -10 17 -34
-4 -15 -6 -35 -5 -44 1 -15 -8 -18 -49 -18 -28 0 -49 5 -49 11 0 5 -4 7 -10 4
-8 -5 -12 16 -9 53 1 12 -44 19 -81 11 -21 -5 -37 -4 -41 3 -4 7 -9 7 -13 -1
-4 -6 -2 -11 3 -11 6 0 11 -9 11 -19 0 -11 5 -23 10 -26 6 -3 10 -14 10 -24 0
-16 -14 -19 -138 -25 -78 -4 -148 -3 -162 2 -14 5 -53 12 -86 16 -51 6 -63 4
-68 -9 -4 -13 1 -15 31 -13 20 1 38 -3 40 -9 2 -6 12 -9 23 -6 10 3 27 0 37
-6 15 -8 9 -10 -29 -11 -27 0 -48 5 -48 10 0 6 -10 9 -22 9 -17 -1 -19 -2 -5
-6 33 -9 16 -23 -28 -23 -38 0 -45 -3 -45 -20 0 -11 -7 -20 -15 -20 -8 0 -15
5 -15 11 0 6 -7 3 -16 -5 -8 -9 -19 -16 -23 -16 -7 0 -8 -40 0 -56 4 -8 4 -97
0 -146 0 -10 -9 -18 -18 -18 -15 0 -15 -1 2 -13 12 -10 14 -16 7 -21 -7 -4
-12 -14 -12 -22 0 -18 25 -46 34 -37 3 4 6 -1 6 -9 0 -11 -6 -14 -20 -11 -11
3 -20 0 -20 -6 0 -6 5 -11 11 -11 7 0 9 -11 6 -30 -5 -22 -3 -30 8 -30 17 0
20 -16 5 -25 -13 -8 -1 -35 16 -35 21 0 16 -13 -12 -33 -23 -17 -27 -18 -49
-3 -22 14 -32 44 -26 79 0 4 -7 7 -18 7 -10 0 -21 9 -24 20 -3 13 -10 18 -21
14 -17 -6 -23 11 -7 20 5 3 7 15 4 26 -3 13 0 20 8 20 10 0 10 3 1 12 -7 7
-12 20 -12 29 0 9 -9 19 -20 22 -30 8 -24 24 10 31 33 6 42 39 15 50 -8 3 -15
10 -15 16 0 6 4 9 8 6 10 -6 8 49 -2 81 -4 12 -9 32 -11 45 -3 12 -9 24 -15
26 -5 2 -10 10 -10 17 0 14 -71 27 -80 15 -4 -6 -105 -18 -310 -36 -36 -4 -73
-10 -82 -15 -42 -22 -100 1 -125 51 -10 19 -23 38 -30 43 -20 12 -43 100 -41
152 1 28 -1 115 -5 195 -3 80 -4 137 -1 127 8 -25 37 -17 44 13 5 18 12 24 25
22 16 -3 17 -2 6 12 -11 12 -17 14 -27 5 -9 -7 -14 -7 -14 -1 0 5 7 15 15 22
10 9 15 9 15 1 0 -6 9 -11 20 -11 12 0 20 7 20 18 0 19 47 45 63 35 6 -3 7 -1
3 5 -4 7 -2 12 3 12 6 0 11 8 12 18 0 9 5 4 10 -13 5 -16 16 -131 24 -255z
m242 258 c-3 -8 -6 -5 -6 6 -1 11 2 17 5 13 3 -3 4 -12 1 -19z m63 17 c0 -3
-7 -17 -17 -31 -18 -27 -34 -16 -26 17 5 16 43 29 43 14z m-144 -37 c0 -12 -6
-23 -12 -25 -6 -2 -10 6 -8 19 3 29 2 28 13 28 4 0 8 -10 7 -22z m-286 -3 c-7
-8 -17 -12 -22 -9 -6 4 -5 10 3 15 22 14 33 10 19 -6z m347 -17 c-3 -8 -6 -5
-6 6 -1 11 2 17 5 13 3 -3 4 -12 1 -19z m110 16 c-3 -3 -12 -4 -19 -1 -8 3 -5
6 6 6 11 1 17 -2 13 -5z m-44 -38 c3 -8 -1 -17 -9 -20 -9 -4 -14 1 -14 14 0
23 15 27 23 6z m57 -6 c0 -5 -4 -10 -9 -10 -6 0 -13 5 -16 10 -3 6 1 10 9 10
9 0 16 -4 16 -10z m830 -50 c0 -5 -4 -10 -9 -10 -6 0 -13 5 -16 10 -3 6 1 10
9 10 9 0 16 -4 16 -10z m-1450 -117 c-1 -21 2 -63 5 -93 7 -51 6 -54 -9 -39
-10 9 -18 22 -20 30 -1 8 -6 25 -10 38 -6 18 -4 26 8 33 13 7 16 17 11 39 -4
19 -3 29 5 29 6 0 10 -16 10 -37z m1577 15 c-3 -8 -6 -5 -6 6 -1 11 2 17 5 13
3 -3 4 -12 1 -19z m-27 -2 c0 -8 -4 -18 -10 -21 -5 -3 -10 3 -10 14 0 12 5 21
10 21 6 0 10 -6 10 -14z m-1580 -21 c0 -8 -4 -15 -10 -15 -5 0 -10 7 -10 15 0
8 5 15 10 15 6 0 10 -7 10 -15z m1616 -25 c30 0 31 -16 2 -24 -16 -4 -29 1
-43 16 -18 19 -18 20 -2 14 10 -3 30 -6 43 -6z m-3113 -247 c-7 -2 -21 -2 -30
0 -10 3 -4 5 12 5 17 0 24 -2 18 -5z m3037 -54 c0 -11 -4 -17 -10 -14 -5 3
-10 13 -10 21 0 8 5 14 10 14 6 0 10 -9 10 -21z m26 -64 c-28 -26 -42 -33 -31
-15 3 6 -1 7 -9 4 -15 -6 -23 -54 -10 -54 3 0 29 11 57 25 27 14 55 24 61 22
6 -2 -14 -16 -44 -31 -78 -38 -86 -46 -94 -96 -16 -105 -68 -271 -81 -258 -2
2 7 35 20 74 26 73 65 241 65 281 l0 24 -40 -22 c-22 -13 -40 -30 -40 -40 0
-23 -25 -70 -33 -62 -15 15 -5 55 21 83 29 32 134 88 166 89 16 1 15 -2 -8
-24z m144 15 c0 -5 -5 -10 -11 -10 -5 0 -7 5 -4 10 3 6 8 10 11 10 2 0 4 -4 4
-10z m-613 -97 c-3 -10 -5 -4 -5 12 0 17 2 24 5 18 2 -7 2 -21 0 -30z m-107
-2 c0 -11 4 -22 8 -25 10 -6 3 -76 -8 -76 -4 0 -10 10 -14 23 -9 35 -7 97 4
97 6 0 10 -9 10 -19z m657 3 c-3 -3 -12 -4 -19 -1 -8 3 -5 6 6 6 11 1 17 -2
13 -5z m-597 -124 c0 -28 -16 -50 -37 -50 -10 0 -11 5 -3 19 5 11 10 37 10 57
0 35 1 37 15 18 8 -10 15 -30 15 -44z m-290 -30 c0 -5 -4 -10 -10 -10 -5 0
-10 5 -10 10 0 6 5 10 10 10 6 0 10 -4 10 -10z m220 -20 c0 -5 -9 -10 -20 -10
-11 0 -20 5 -20 10 0 6 9 10 20 10 11 0 20 -4 20 -10z m-235 -30 c-3 -5 -12
-7 -20 -3 -21 7 -19 13 6 13 11 0 18 -4 14 -10z m210 -9 c3 -5 1 -12 -5 -16
-5 -3 -10 1 -10 9 0 18 6 21 15 7z m65 -1 c0 -5 -4 -10 -10 -10 -5 0 -10 5
-10 10 0 6 5 10 10 10 6 0 10 -4 10 -10z m-310 -30 c0 -5 -4 -10 -10 -10 -5 0
-10 5 -10 10 0 6 5 10 10 10 6 0 10 -4 10 -10z m265 -20 c-3 -5 -10 -10 -16
-10 -5 0 -9 5 -9 10 0 6 7 10 16 10 8 0 12 -4 9 -10z m362 -37 c2 -23 -1 -44
-7 -48 -5 -3 -10 -15 -10 -25 0 -28 -21 -70 -35 -70 -6 0 -17 -11 -23 -25 -6
-13 -29 -33 -51 -45 -53 -27 -62 -26 -20 3 19 12 42 38 51 57 10 19 28 38 40
43 16 6 19 10 10 16 -9 6 -10 15 -3 33 5 14 7 29 3 33 -4 4 2 14 13 22 13 10
16 17 8 20 -14 5 -5 35 10 30 6 -2 12 -22 14 -44z m-327 -13 c0 -5 -4 -10 -10
-10 -5 0 -10 5 -10 10 0 6 5 10 10 10 6 0 10 -4 10 -10z m-105 -220 c4 -6 -7
-10 -27 -9 -31 1 -32 1 -8 9 14 4 26 8 27 9 1 1 5 -3 8 -9z m-92 -37 c-13 -2
-35 -2 -50 0 -16 2 -5 4 22 4 28 0 40 -2 28 -4z m82 -3 c-3 -5 -13 -10 -21
-10 -8 0 -14 5 -14 10 0 6 9 10 21 10 11 0 17 -4 14 -10z m72 -39 c18 -5 35
-6 37 -3 2 4 43 6 90 4 64 -3 86 -7 86 -17 0 -7 6 -15 13 -18 25 -8 -15 -39
-45 -35 -15 3 -28 0 -28 -5 0 -5 -6 -7 -14 -4 -7 3 -23 -1 -34 -8 -10 -8 -22
-11 -26 -7 -4 3 -4 -1 0 -11 4 -11 0 -19 -10 -23 -11 -4 -14 -13 -11 -25 8
-26 -14 -33 -61 -20 -21 6 -41 7 -44 2 -14 -21 -43 -28 -71 -17 -16 6 -29 14
-29 19 0 8 -44 52 -58 59 -9 4 -82 95 -82 102 0 14 241 20 287 7z m303 -26
c18 11 31 -5 16 -21 -10 -9 -25 -12 -45 -8 -26 6 -29 9 -20 26 8 15 13 17 24
8 8 -7 19 -9 25 -5z m-166 -121 c9 -3 16 -9 16 -13 0 -12 -44 -5 -48 7 -4 13
8 15 32 6z m113 0 c-3 -3 -12 -4 -19 -1 -8 3 -5 6 6 6 11 1 17 -2 13 -5z
m-160 -26 c-3 -8 -6 -5 -6 6 -1 11 2 17 5 13 3 -3 4 -12 1 -19z m141 -44 c-8
-9 -24 -14 -34 -11 -17 3 -16 5 6 15 36 16 47 14 28 -4z m-295 -19 c12 -11 22
-12 45 -4 41 14 98 8 94 -10 -2 -8 3 -11 11 -8 8 3 20 1 28 -4 11 -7 9 -10 -8
-15 -17 -5 -24 -16 -29 -50 -5 -36 -11 -45 -31 -50 -19 -5 -30 0 -49 21 -13
16 -24 34 -24 41 0 7 -6 17 -13 21 -12 8 -47 57 -47 68 0 9 8 6 23 -10z m354
-21 c-3 -3 -12 -4 -19 -1 -8 3 -5 6 6 6 11 1 17 -2 13 -5z m-177 -54 c0 -5 -4
-10 -10 -10 -5 0 -10 5 -10 10 0 6 5 10 10 10 6 0 10 -4 10 -10z m1106 -124
c-6 -23 -3 -24 29 -23 21 1 35 7 35 15 0 7 5 10 10 7 6 -3 10 -17 10 -31 0
-20 -5 -24 -32 -25 -34 -2 -63 -4 -85 -7 -7 -1 -13 -9 -13 -18 0 -24 -23 -11
-31 17 -4 13 -7 17 -8 8 -1 -9 -8 -19 -16 -23 -8 -3 -15 -15 -15 -26 0 -12 -7
-20 -16 -20 -12 0 -15 6 -10 26 6 21 4 25 -8 21 -11 -4 -16 -1 -16 11 -1 16
-2 16 -14 -1 -11 -14 -15 -15 -19 -5 -4 10 -8 10 -16 -2 -5 -8 -11 -12 -13
-10 -13 18 -38 83 -34 88 3 3 28 7 55 10 45 4 50 3 53 -19 4 -26 28 -39 28
-14 0 15 2 15 16 4 13 -10 17 -10 24 2 8 12 13 12 30 1 24 -15 50 -2 50 24 0
8 3 14 6 14 3 0 3 -11 0 -24z m-86 -100 c0 -3 -4 -8 -10 -11 -5 -3 -10 -1 -10
4 0 6 5 11 10 11 6 0 10 -2 10 -4z"/>
<path d="M2701 3441 c-8 -5 -11 -16 -8 -25 4 -9 2 -16 -3 -16 -6 0 -10 -7 -10
-15 0 -8 7 -15 15 -15 8 0 15 7 15 15 0 8 6 14 13 13 7 -2 13 9 15 25 3 28
-10 35 -37 18z"/>
<path d="M2560 3370 c0 -5 5 -10 10 -10 6 0 10 5 10 10 0 6 -4 10 -10 10 -5 0
-10 -4 -10 -10z"/>
<path d="M2865 3210 c-3 -5 -1 -10 4 -10 6 0 11 5 11 10 0 6 -2 10 -4 10 -3 0
-8 -4 -11 -10z"/>
<path d="M3290 3120 c19 -13 30 -13 30 0 0 6 -10 10 -22 10 -19 0 -20 -2 -8
-10z"/>
<path d="M2448 2923 c6 -2 18 -2 25 0 6 3 1 5 -13 5 -14 0 -19 -2 -12 -5z"/>
<path d="M3490 2910 c0 -5 5 -10 10 -10 6 0 10 5 10 10 0 6 -4 10 -10 10 -5 0
-10 -4 -10 -10z"/>
<path d="M2225 2891 c-3 -5 4 -13 16 -16 28 -9 36 1 10 14 -12 7 -22 7 -26 2z"/>
<path d="M2738 2833 c7 -3 16 -2 19 1 4 3 -2 6 -13 5 -11 0 -14 -3 -6 -6z"/>
<path d="M2252 2778 c3 -7 17 -12 33 -12 16 0 30 5 33 12 2 8 -9 12 -33 12
-24 0 -35 -4 -33 -12z"/>
<path d="M2175 2770 c-8 -13 15 -13 35 0 12 8 11 10 -7 10 -12 0 -25 -4 -28
-10z"/>
<path d="M2608 2763 c7 -3 16 -2 19 1 4 3 -2 6 -13 5 -11 0 -14 -3 -6 -6z"/>
<path d="M2744 1978 c-2 -3 4 -9 13 -11 17 -4 17 -5 1 -6 -10 0 -18 -6 -18
-13 0 -6 3 -9 6 -5 3 3 17 2 30 -3 19 -8 27 -5 44 20 l20 28 -46 -1 c-25 -1
-48 -5 -50 -9z"/>
<path d="M2850 1800 c-9 -6 -10 -10 -3 -10 6 0 15 5 18 10 8 12 4 12 -15 0z"/>
<path d="M960 4570 c0 -5 7 -10 15 -10 8 0 15 5 15 10 0 6 -7 10 -15 10 -8 0
-15 -4 -15 -10z"/>
<path d="M1075 4570 c-7 -11 2 -30 13 -30 4 0 8 9 8 20 0 21 -11 26 -21 10z"/>
<path d="M930 4535 c0 -8 7 -15 15 -15 9 0 12 6 9 15 -4 8 -10 15 -15 15 -5 0
-9 -7 -9 -15z"/>
<path d="M2092 4505 c-7 -8 -9 -15 -4 -15 5 0 15 7 22 15 16 19 -1 19 -18 0z"/>
<path d="M4553 4463 c9 -2 25 -2 35 0 9 3 1 5 -18 5 -19 0 -27 -2 -17 -5z"/>
<path d="M2006 4451 c-3 -5 1 -11 9 -14 9 -4 12 -1 8 9 -6 16 -10 17 -17 5z"/>
<path d="M3584 4452 c-9 -5 -8 -11 2 -20 12 -11 14 -9 14 8 0 22 0 23 -16 12z"/>
<path d="M3680 4445 c0 -8 7 -15 16 -15 14 0 14 3 4 15 -7 8 -14 15 -16 15 -2
0 -4 -7 -4 -15z"/>
<path d="M3725 4450 c-3 -5 1 -10 10 -10 9 0 13 5 10 10 -3 6 -8 10 -10 10 -2
0 -7 -4 -10 -10z"/>
<path d="M3931 4446 c-10 -12 -8 -13 8 -9 12 3 21 9 21 14 0 14 -16 11 -29 -5z"/>
<path d="M1000 4424 c0 -8 5 -12 10 -9 6 4 8 11 5 16 -9 14 -15 11 -15 -7z"/>
<path d="M3747 4419 c-24 -14 -11 -30 18 -23 14 3 38 1 55 -4 16 -6 30 -7 30
-3 0 26 -74 47 -103 30z"/>
<path d="M3930 4410 c-14 -10 -22 -21 -19 -25 9 -8 59 12 59 24 0 19 -16 19
-40 1z"/>
<path d="M4350 4414 c0 -9 7 -14 17 -12 25 5 28 28 4 28 -12 0 -21 -6 -21 -16z"/>
<path d="M900 4409 c0 -5 5 -7 10 -4 6 3 10 8 10 11 0 2 -4 4 -10 4 -5 0 -10
-5 -10 -11z"/>
<path d="M3555 4410 c3 -5 8 -10 11 -10 2 0 4 5 4 10 0 6 -5 10 -11 10 -5 0
-7 -4 -4 -10z"/>
<path d="M4282 4398 c-6 -15 -9 -35 -6 -43 7 -17 34 -20 34 -4 0 7 10 9 28 5
l27 -7 -25 20 c-20 16 -26 17 -28 6 -2 -8 -10 -15 -19 -15 -12 0 -13 3 -3 15
6 8 10 22 7 32 -3 15 -6 13 -15 -9z"/>
<path d="M3650 4400 c0 -5 7 -10 15 -10 8 0 15 5 15 10 0 6 -7 10 -15 10 -8 0
-15 -4 -15 -10z"/>
<path d="M4430 4391 c0 -5 7 -14 15 -21 12 -10 15 -10 15 3 0 8 -7 17 -15 21
-8 3 -15 2 -15 -3z"/>
<path d="M4380 4380 c0 -5 5 -10 10 -10 6 0 10 5 10 10 0 6 -4 10 -10 10 -5 0
-10 -4 -10 -10z"/>
<path d="M3743 4369 c-4 -4 -23 -9 -42 -11 -43 -5 -49 -20 -15 -38 24 -14 27
-13 46 13 20 27 40 36 36 16 -5 -20 19 -20 25 0 3 14 -1 20 -19 24 -12 2 -27
1 -31 -4z"/>
<path d="M3867 4373 c-4 -3 5 -12 20 -20 32 -16 44 -8 17 12 -22 16 -28 18
-37 8z"/>
<path d="M680 4344 c0 -8 5 -12 10 -9 6 3 10 10 10 16 0 5 -4 9 -10 9 -5 0
-10 -7 -10 -16z"/>
<path d="M3438 4353 c7 -3 16 -2 19 1 4 3 -2 6 -13 5 -11 0 -14 -3 -6 -6z"/>
<path d="M3574 4346 c-14 -11 -16 -18 -8 -26 8 -7 14 -3 22 15 13 29 12 30
-14 11z"/>
<path d="M3620 4351 c0 -6 5 -13 10 -16 6 -3 10 1 10 9 0 9 -4 16 -10 16 -5 0
-10 -4 -10 -9z"/>
<path d="M3831 4334 c-23 -16 -18 -35 11 -40 7 -1 21 -5 31 -9 10 -4 17 -3 17
4 0 13 -35 33 -44 24 -3 -3 -6 -1 -6 5 0 7 9 12 19 12 11 0 23 5 26 10 10 16
-28 12 -54 -6z"/>
<path d="M3496 4331 c-3 -5 3 -11 14 -14 13 -3 20 0 20 9 0 15 -26 19 -34 5z"/>
<path d="M4320 4320 c0 -5 -9 -10 -19 -10 -22 0 -36 -16 -22 -24 5 -3 7 -15 4
-26 -7 -27 6 -25 42 7 19 16 23 24 11 19 -15 -5 -17 -2 -12 19 4 14 4 25 1 25
-3 0 -5 -4 -5 -10z"/>
<path d="M3600 4310 c0 -5 5 -10 10 -10 6 0 10 5 10 10 0 6 -4 10 -10 10 -5 0
-10 -4 -10 -10z"/>
<path d="M3732 4288 c5 -15 28 -23 28 -10 0 5 -7 13 -16 16 -10 4 -14 1 -12
-6z"/>
<path d="M3645 4280 c3 -5 14 -10 23 -10 15 0 15 2 2 10 -20 13 -33 13 -25 0z"/>
<path d="M1000 4270 c0 -4 9 -10 20 -13 11 -3 20 -2 20 3 0 4 -9 10 -20 13
-11 3 -20 2 -20 -3z"/>
<path d="M4226 4271 c-3 -5 1 -11 9 -15 9 -3 15 0 15 9 0 16 -16 20 -24 6z"/>
<path d="M4100 4260 c0 -5 9 -10 19 -10 11 0 27 -7 36 -16 8 -9 22 -14 29 -11
17 7 15 39 -2 45 -7 2 -10 -3 -6 -12 8 -20 -10 -21 -30 -1 -17 17 -46 20 -46
5z"/>
<path d="M3665 4231 c-3 -5 -1 -12 5 -16 5 -3 10 1 10 9 0 18 -6 21 -15 7z"/>
<path d="M1516 4191 c-9 -14 4 -41 20 -41 19 0 18 -15 -2 -34 -14 -15 -12 -16
27 -16 40 0 41 1 23 15 -10 8 -14 15 -7 15 8 0 8 6 0 25 -9 18 -17 23 -34 18
-13 -3 -23 -1 -23 5 0 6 10 13 23 15 22 4 22 4 0 6 -12 0 -24 -3 -27 -8z"/>
<path d="M3914 4186 c5 -15 2 -17 -19 -12 -18 5 -25 2 -25 -9 0 -8 9 -15 20
-15 11 0 20 -4 20 -9 0 -5 12 -6 28 -2 31 9 36 34 7 40 -11 2 -24 8 -28 15 -6
7 -6 4 -3 -8z"/>
<path d="M3521 4134 c0 -11 3 -14 6 -6 3 7 2 16 -1 19 -3 4 -6 -2 -5 -13z"/>
<path d="M1600 4130 c0 -5 5 -10 11 -10 5 0 7 5 4 10 -3 6 -8 10 -11 10 -2 0
-4 -4 -4 -10z"/>
<path d="M782 4080 c0 -14 2 -19 5 -12 2 6 2 18 0 25 -3 6 -5 1 -5 -13z"/>
<path d="M3440 4084 c0 -8 5 -12 10 -9 6 4 8 11 5 16 -9 14 -15 11 -15 -7z"/>
<path d="M3480 4090 c0 -5 7 -10 16 -10 8 0 12 5 9 10 -3 6 -10 10 -16 10 -5
0 -9 -4 -9 -10z"/>
<path d="M3527 4082 c1 -8 3 -18 3 -23 0 -5 7 -9 15 -9 8 0 15 7 15 15 0 8 -6
15 -14 15 -8 0 -16 3 -19 8 -2 4 -2 1 0 -6z"/>
<path d="M2292 4073 c-15 -6 -6 -23 14 -23 8 0 14 7 14 15 0 15 -6 17 -28 8z"/>
<path d="M1650 4060 c0 -5 7 -7 15 -4 8 4 15 8 15 10 0 2 -7 4 -15 4 -8 0 -15
-4 -15 -10z"/>
<path d="M3040 4060 c0 -5 4 -10 9 -10 6 0 13 5 16 10 3 6 -1 10 -9 10 -9 0
-16 -4 -16 -10z"/>
<path d="M2151 4048 c-1 -14 -10 -18 -36 -18 -19 0 -35 -4 -35 -10 0 -5 7 -10
15 -10 10 0 15 -7 13 -17 -2 -12 3 -18 15 -18 9 0 17 4 16 9 -1 16 32 29 44
17 8 -8 6 -11 -6 -11 -9 0 -17 -4 -17 -10 0 -5 5 -10 12 -10 22 0 83 25 94 39
9 11 15 11 33 1 25 -13 49 -1 37 19 -10 15 -38 14 -71 -3 -31 -16 -67 -11 -43
6 9 7 1 8 -24 5 -29 -4 -38 -2 -41 11 -4 15 -5 15 -6 0z"/>
<path d="M3380 4050 c0 -5 5 -10 11 -10 5 0 7 5 4 10 -3 6 -8 10 -11 10 -2 0
-4 -4 -4 -10z"/>
<path d="M632 3935 c0 -16 2 -22 5 -12 2 9 2 23 0 30 -3 6 -5 -1 -5 -18z"/>
<path d="M2540 3956 c0 -2 7 -7 16 -10 8 -3 12 -2 9 4 -6 10 -25 14 -25 6z"/>
<path d="M2518 3933 c7 -3 16 -2 19 1 4 3 -2 6 -13 5 -11 0 -14 -3 -6 -6z"/>
<path d="M4496 3502 c-2 -1 -50 -9 -107 -17 -134 -19 -185 -33 -292 -84 -72
-34 -87 -45 -87 -64 0 -14 -12 -32 -30 -45 -16 -13 -29 -28 -27 -35 1 -6 -3
-11 -9 -10 -6 1 -25 -12 -42 -30 -16 -18 -50 -50 -76 -71 -25 -22 -46 -45 -46
-52 0 -6 -6 -16 -13 -22 -7 -6 -13 -35 -14 -69 0 -32 1 -50 4 -40 4 16 9 13
30 -19 28 -40 30 -53 37 -247 4 -103 8 -134 29 -182 37 -88 51 -85 43 11 -11
129 -22 218 -31 239 -7 17 -5 16 14 -4 11 -13 23 -22 26 -20 2 3 2 29 -2 58
-4 38 -10 51 -19 47 -18 -7 -19 55 -2 72 9 9 9 15 0 24 -15 15 -16 28 -2 28 6
0 15 -11 20 -24 5 -14 23 -35 40 -47 17 -13 40 -37 50 -54 11 -16 20 -25 20
-18 0 6 -4 15 -10 18 -12 7 -13 25 -2 25 4 0 18 -16 32 -34 35 -47 97 -76 190
-90 44 -6 100 24 100 54 0 27 28 26 86 -5 51 -27 93 -32 112 -13 9 9 18 9 37
0 32 -15 35 -15 35 1 0 7 -9 20 -20 30 -21 18 -27 37 -11 37 5 0 17 -7 25 -16
15 -14 16 -9 16 57 l0 72 -28 -6 c-17 -3 -45 2 -70 13 -34 15 -47 29 -63 65
-25 57 -18 102 25 155 27 33 38 39 84 45 l52 7 0 72 c0 44 -5 77 -12 85 -10
11 -10 14 0 18 7 3 12 23 12 49 l0 45 -51 -3 c-28 -2 -52 -4 -53 -6z m-97 -58
c-28 -16 -49 -18 -49 -5 0 12 52 30 64 23 5 -3 -2 -11 -15 -18z m146 16 c3 -5
-1 -10 -9 -10 -9 0 -16 5 -16 10 0 6 4 10 9 10 6 0 13 -4 16 -10z m-125 -60
c-20 -13 -47 -13 -55 0 -4 6 9 10 32 10 28 0 34 -3 23 -10z m132 -24 c10 -7
15 -16 11 -20 -4 -4 -1 -11 7 -16 8 -6 10 -10 4 -10 -7 0 -15 -11 -18 -25 -6
-24 -9 -25 -90 -25 -58 0 -86 4 -90 13 -4 6 -4 -3 -1 -20 4 -26 1 -33 -13 -33
-14 0 -15 -2 -2 -10 24 -15 -12 -23 -46 -9 -16 6 -23 13 -16 16 6 3 12 11 12
18 0 8 9 19 20 25 11 6 19 14 16 18 -2 4 25 8 62 8 38 1 68 6 70 12 2 6 9 9
16 6 20 -8 41 23 27 39 -20 25 3 34 31 13z m-512 -227 c0 -5 -4 -9 -10 -9 -5
0 -10 7 -10 16 0 8 5 12 10 9 6 -3 10 -10 10 -16z m319 -9 c5 -8 5 -44 1 -80
-4 -42 -3 -67 4 -72 11 -7 -12 -21 -30 -17 -23 4 -65 -2 -60 -9 2 -4 17 -7 33
-6 15 1 41 3 57 3 26 1 28 3 23 34 -3 17 -2 41 3 52 5 11 9 15 9 9 1 -6 19
-32 41 -57 31 -35 51 -48 90 -57 35 -8 50 -17 50 -28 0 -11 -3 -13 -8 -6 -4 6
-25 14 -47 17 -22 3 -51 9 -64 13 -18 5 -22 4 -17 -5 5 -7 0 -21 -11 -33 -18
-21 -18 -21 14 -16 30 4 34 1 44 -29 6 -19 9 -37 6 -40 -10 -9 -47 8 -47 23 0
8 -10 14 -25 14 -15 0 -25 6 -25 14 0 17 -43 26 -129 26 -67 1 -92 11 -104 43
-5 13 -1 17 18 17 14 0 25 5 25 10 0 6 -11 10 -24 10 -32 0 -44 20 -18 27 20
5 32 30 32 70 0 16 -5 20 -20 16 -11 -3 -20 -10 -20 -17 0 -15 -20 15 -20 31
0 14 144 61 183 60 16 -1 32 -8 36 -17z m-337 -42 c-9 -9 -12 -7 -12 12 0 19
3 21 12 12 9 -9 9 -15 0 -24z m-245 -100 c-3 -8 -6 -5 -6 6 -1 11 2 17 5 13 3
-3 4 -12 1 -19z m477 -144 c19 -18 20 -26 5 -41 -7 -7 -3 -9 16 -5 25 4 26 3
16 -16 -13 -25 -31 -38 -31 -23 0 6 -11 11 -24 11 -13 0 -33 3 -43 7 -15 6
-13 8 11 13 l29 5 -29 15 c-57 28 -60 34 -23 41 54 10 57 10 73 -7z m46 1 c0
-8 -4 -15 -10 -15 -5 0 -10 7 -10 15 0 8 5 15 10 15 6 0 10 -7 10 -15z"/>
<path d="M4168 2983 c7 -3 16 -2 19 1 4 3 -2 6 -13 5 -11 0 -14 -3 -6 -6z"/>
<path d="M905 3100 c-3 -5 -1 -10 6 -10 7 0 5 -8 -7 -21 l-19 -21 40 5 c64 8
159 33 180 46 17 10 7 11 -53 9 -50 -3 -76 -8 -84 -18 -8 -12 -9 -12 -4 3 4
13 -1 17 -24 17 -16 0 -32 -4 -35 -10z"/>
<path d="M1200 3101 c0 -6 4 -11 8 -11 5 0 17 -7 28 -16 18 -15 18 -15 -3 -5
-28 14 -96 14 -88 1 3 -5 16 -10 29 -10 23 0 106 -36 106 -46 0 -3 -15 -3 -32
0 -18 3 -27 3 -20 0 19 -9 4 -24 -26 -25 -24 0 -25 -1 -7 -8 11 -5 54 -15 96
-23 73 -13 76 -13 71 5 -4 17 -2 17 30 -4 19 -13 35 -28 35 -33 0 -33 5 -46
18 -46 8 0 15 -4 15 -10 0 -15 -26 -12 -40 5 -7 8 -21 15 -32 15 -30 0 -18
-32 17 -43 16 -6 38 -21 48 -34 10 -12 27 -23 37 -23 27 0 34 -19 15 -40 -23
-26 -16 -50 25 -78 26 -17 43 -22 67 -17 30 5 53 -7 34 -20 -16 -9 27 -72 65
-95 29 -19 38 -20 69 -10 30 10 35 16 35 44 0 17 -13 58 -29 90 -28 57 -29 58
-44 36 -10 -15 -17 -18 -22 -10 -6 9 -10 9 -16 -1 -9 -15 -12 9 -12 109 0 28
-4 52 -8 52 -5 0 -9 6 -9 14 0 15 -113 101 -170 129 -19 10 -59 30 -88 46 -56
31 -93 42 -132 42 -20 -1 -22 1 -10 9 13 9 13 10 0 10 -8 0 -25 3 -37 6 -14 4
-23 2 -23 -5z"/>
<path d="M821 3074 c-26 -12 -31 -18 -22 -27 10 -9 15 -8 25 6 7 9 20 17 29
17 9 0 19 5 22 10 9 14 -14 11 -54 -6z"/>
<path d="M1020 3050 c-20 -6 -21 -8 -5 -8 11 -1 38 3 60 7 l40 9 -35 0 c-19 0
-46 -4 -60 -8z"/>
<path d="M753 3023 c-3 -10 -8 -21 -10 -25 -9 -17 23 4 35 22 10 17 10 20 -3
20 -9 0 -18 -8 -22 -17z"/>
<path d="M3695 2971 c-3 -5 -1 -12 5 -16 5 -3 10 1 10 9 0 18 -6 21 -15 7z"/>
<path d="M303 2665 c-17 -18 -33 -45 -36 -61 -2 -16 -9 -42 -15 -57 -18 -42
-15 -44 17 -8 16 18 34 30 40 26 12 -7 -10 -35 -27 -35 -12 0 -11 -33 2 -43 7
-5 5 -11 -6 -18 -24 -13 -23 -25 3 -32 24 -6 49 1 49 14 0 17 35 89 43 89 4 0
6 -4 3 -8 -2 -4 -1 -14 4 -22 7 -11 12 -8 21 15 7 17 11 34 10 39 -1 4 16 6
37 4 29 -2 38 0 35 9 -3 7 -15 13 -27 13 -17 0 -18 2 -6 10 8 5 11 10 6 10 -4
0 -1 11 7 24 l16 24 -37 -9 c-20 -4 -38 -6 -41 -3 -2 2 1 4 7 4 17 0 15 27 -2
33 -7 3 -18 1 -23 -4 -6 -6 -14 -4 -23 6 -16 19 -19 18 -57 -20z"/>
<path d="M3520 2632 c0 -4 19 -9 43 -9 35 -1 38 0 17 7 -33 11 -60 12 -60 2z"/>
<path d="M3529 2599 c-9 -6 1 -9 34 -9 26 0 47 3 47 8 0 10 -64 12 -81 1z"/>
<path d="M3595 2570 c-30 -4 -35 -7 -22 -13 26 -10 55 -9 62 4 10 14 6 15 -40
9z"/>
<path d="M3655 2530 c-3 -5 -1 -10 4 -10 6 0 11 5 11 10 0 6 -2 10 -4 10 -3 0
-8 -4 -11 -10z"/>
<path d="M630 2482 c-32 -17 -37 -22 -18 -18 22 5 26 3 22 -9 -7 -18 12 -21
19 -2 4 9 8 8 17 -3 9 -12 10 -10 5 9 -5 14 -2 26 5 31 7 4 8 10 4 12 -5 3
-29 -6 -54 -20z"/>
<path d="M3655 2490 c-4 -6 5 -10 19 -10 14 0 26 5 26 10 0 6 -9 10 -19 10
-11 0 -23 -4 -26 -10z"/>
<path d="M377 2483 c-14 -4 -17 -12 -13 -35 4 -29 46 -81 46 -57 0 7 9 9 21 6
12 -3 18 -3 15 0 -3 3 2 12 10 20 19 19 9 33 -22 33 -18 0 -24 5 -22 16 3 19
-8 24 -35 17z"/>
<path d="M3608 2483 c7 -3 16 -2 19 1 4 3 -2 6 -13 5 -11 0 -14 -3 -6 -6z"/>
<path d="M540 2466 c7 -7 13 -7 20 0 6 6 3 10 -10 10 -13 0 -16 -4 -10 -10z"/>
<path d="M3630 2450 c0 -5 21 -10 48 -9 35 0 42 3 27 9 -28 12 -75 12 -75 0z"/>
<path d="M490 2420 c0 -12 8 -12 35 0 18 8 17 9 -7 9 -16 1 -28 -3 -28 -9z"/>
<path d="M549 2414 c-7 -9 -23 -20 -36 -25 -28 -10 -28 -17 -3 -49 16 -20 20
-22 20 -7 0 9 8 17 18 18 11 1 8 4 -8 9 -25 7 -24 8 13 24 20 9 37 23 37 31 0
20 -24 19 -41 -1z"/>
<path d="M750 2423 c-25 -9 -50 -35 -44 -45 3 -5 15 -2 25 8 11 9 22 14 26 11
8 -9 -27 -36 -46 -37 -9 0 -11 -8 -7 -25 4 -14 2 -25 -4 -25 -5 0 -10 9 -10
20 0 32 -17 23 -24 -12 -4 -21 -2 -34 6 -40 10 -6 9 -8 -2 -8 -11 0 -12 -2 -3
-8 7 -4 9 -13 5 -19 -4 -7 -12 -9 -17 -5 -15 10 -45 71 -45 90 0 14 -2 14 -9
3 -5 -7 -14 -10 -20 -7 -6 4 -11 2 -11 -5 0 -7 -3 -9 -7 -6 -3 4 -18 -3 -31
-15 -17 -16 -26 -19 -29 -10 -5 14 -33 16 -33 2 0 -5 6 -10 14 -10 7 0 19 -6
25 -14 10 -12 7 -15 -16 -18 -27 -4 -26 -5 19 -26 35 -17 63 -22 108 -21 33 1
60 5 60 10 0 4 15 3 34 -2 40 -11 73 -1 115 36 41 37 101 67 122 62 13 -4 16
0 12 12 -10 27 -35 51 -71 68 -32 15 -36 15 -47 0 -11 -15 -14 -16 -25 -2 -7
8 -22 15 -34 16 -20 0 -20 1 -2 8 18 7 18 8 2 14 -10 4 -18 7 -19 6 -1 0 -9
-3 -17 -6z m40 -93 c0 -5 -7 -10 -15 -10 -8 0 -15 -6 -15 -14 0 -8 -16 -23
-35 -35 l-35 -20 0 21 c0 15 5 19 20 15 11 -3 20 0 20 6 0 15 31 47 47 47 7 0
13 -4 13 -10z m-190 -29 c0 -12 -20 -25 -27 -18 -7 7 6 27 18 27 5 0 9 -4 9
-9z"/>
<path d="M3650 2420 c0 -5 9 -10 20 -10 11 0 20 5 20 10 0 6 -9 10 -20 10 -11
0 -20 -4 -20 -10z"/>
<path d="M662 2398 c-7 -7 -12 -19 -11 -27 0 -11 2 -12 6 -3 2 6 11 12 19 12
8 0 14 4 14 9 0 16 -16 21 -28 9z"/>
<path d="M631 2343 c0 -4 4 -17 9 -28 8 -19 9 -19 9 2 1 12 -3 25 -9 28 -5 3
-10 3 -9 -2z"/>
<path d="M1856 2301 c4 -21 3 -31 -4 -27 -6 3 -8 -2 -5 -13 4 -17 -2 -20 -54
-26 -69 -8 -88 -13 -50 -14 15 -1 27 -4 27 -8 0 -5 -37 -9 -83 -10 -55 -1
-121 -12 -202 -33 -134 -35 -173 -53 -195 -93 -13 -24 -13 -33 2 -84 23 -82
43 -132 58 -146 10 -10 11 -9 5 3 -5 8 7 -1 26 -21 35 -37 71 -52 124 -50 17
1 53 2 82 3 28 1 49 6 47 10 -5 7 13 12 43 11 7 -1 10 3 7 8 -3 5 2 9 11 9 10
0 13 -5 9 -12 -5 -9 -2 -8 9 1 10 8 16 16 13 18 -2 2 17 24 43 48 30 28 48 39
53 32 4 -7 11 -3 17 13 8 22 10 22 11 5 3 -41 20 25 31 118 13 118 13 177 0
190 -6 6 -11 22 -12 37 0 14 -5 34 -10 45 -7 15 -7 11 -3 -14z m-35 -118 c13
-16 12 -17 -3 -4 -10 7 -18 15 -18 17 0 8 8 3 21 -13z m-227 -22 c3 -5 0 -13
-7 -18 -13 -11 -62 9 -50 20 9 10 51 8 57 -2z m-254 -75 c0 -16 -18 -31 -27
-22 -8 8 5 36 17 36 5 0 10 -6 10 -14z m40 -17 c0 -5 -4 -9 -10 -9 -5 0 -10 7
-10 16 0 8 5 12 10 9 6 -3 10 -10 10 -16z"/>
<path d="M3464 2296 c-8 -22 3 -33 18 -18 9 9 9 15 0 24 -9 9 -13 7 -18 -6z"/>
<path d="M3346 2263 c-6 -14 -5 -15 5 -6 7 7 10 15 7 18 -3 3 -9 -2 -12 -12z"/>
<path d="M1240 2104 c0 -8 5 -12 10 -9 6 4 8 11 5 16 -9 14 -15 11 -15 -7z"/>
<path d="M564 2076 c-46 -20 -114 -30 -114 -17 0 6 -4 11 -10 11 -5 0 -7 -6
-4 -14 3 -8 1 -17 -5 -21 -12 -7 -5 -52 10 -71 5 -6 15 -29 23 -50 9 -24 15
-31 15 -19 1 17 3 17 11 5 13 -20 13 -43 0 -35 -14 9 -13 -16 3 -48 6 -15 18
-25 25 -22 7 2 18 -7 25 -23 18 -40 48 -61 77 -55 20 4 31 -2 49 -26 23 -30
26 -31 105 -31 92 0 188 20 215 44 10 9 22 16 27 16 13 1 53 66 75 124 23 61
24 77 4 50 -13 -17 -14 -12 -15 58 0 92 -13 110 -93 129 -50 12 -282 7 -336
-8 -17 -4 -22 -3 -17 5 10 16 -31 15 -70 -2z m331 -6 c4 -6 11 -8 16 -4 13 8
110 -16 104 -25 -2 -4 5 -15 16 -24 10 -9 19 -21 19 -27 0 -13 -23 -13 -36 -1
-5 5 -25 11 -44 13 -29 2 -34 0 -32 -14 2 -10 -1 -18 -6 -18 -5 0 -12 8 -14
18 -3 9 -28 29 -56 43 -48 25 -50 27 -29 37 29 14 54 15 62 2z m-278 -6 c-3
-3 -12 -4 -19 -1 -8 3 -5 6 6 6 11 1 17 -2 13 -5z"/>
<path d="M1091 2074 c0 -11 3 -14 6 -6 3 7 2 16 -1 19 -3 4 -6 -2 -5 -13z"/>
<path d="M560 1643 c0 -5 7 -18 15 -29 15 -18 15 -18 13 5 -3 23 -28 44 -28
24z"/>
</g>
</svg>
